<svg width="30" height="30" viewBox="0 0 30 30" fill="none" xmlns="http://www.w3.org/2000/svg">
<path d="M15 0.333313C12.0992 0.333313 9.26354 1.1935 6.85162 2.80509C4.4397 4.41669 2.55984 6.70731 1.44975 9.38729C0.339668 12.0673 0.0492189 15.0162 0.615135 17.8613C1.18105 20.7064 2.57792 23.3197 4.62909 25.3709C6.68026 27.4221 9.29361 28.8189 12.1387 29.3848C14.9837 29.9507 17.9327 29.6603 20.6127 28.5502C23.2927 27.4401 25.5833 25.5603 27.1949 23.1483C28.8065 20.7364 29.6667 17.9008 29.6667 15C29.6667 11.1101 28.1214 7.37961 25.3709 4.62908C22.6204 1.87855 18.8898 0.333313 15 0.333313ZM15 27C12.6266 27 10.3065 26.2962 8.33314 24.9776C6.35975 23.659 4.82168 21.7849 3.91343 19.5922C3.00518 17.3995 2.76754 14.9867 3.23056 12.6589C3.69359 10.3311 4.83647 8.19293 6.5147 6.5147C8.19293 4.83647 10.3311 3.69358 12.6589 3.23056C14.9867 2.76753 17.3995 3.00517 19.5922 3.91343C21.7849 4.82168 23.659 6.35975 24.9776 8.33314C26.2962 10.3065 27 12.6266 27 15C27 18.1826 25.7357 21.2348 23.4853 23.4853C21.2348 25.7357 18.1826 27 15 27ZM17.6667 8.33331V6.99998C17.6667 6.64636 17.5262 6.30722 17.2761 6.05717C17.0261 5.80712 16.6869 5.66665 16.3333 5.66665C15.9797 5.66665 15.6406 5.80712 15.3905 6.05717C15.1405 6.30722 15 6.64636 15 6.99998V8.33331H13.6667V6.99998C13.6667 6.64636 13.5262 6.30722 13.2761 6.05717C13.0261 5.80712 12.6869 5.66665 12.3333 5.66665C11.9797 5.66665 11.6406 5.80712 11.3905 6.05717C11.1405 6.30722 11 6.64636 11 6.99998V8.33331H9.66665C9.31303 8.33331 8.97389 8.47379 8.72384 8.72384C8.4738 8.97389 8.33332 9.31302 8.33332 9.66665C8.33332 10.0203 8.4738 10.3594 8.72384 10.6095C8.97389 10.8595 9.31303 11 9.66665 11H11V19H9.66665C9.31303 19 8.97389 19.1405 8.72384 19.3905C8.4738 19.6406 8.33332 19.9797 8.33332 20.3333C8.33332 20.6869 8.4738 21.0261 8.72384 21.2761C8.97389 21.5262 9.31303 21.6666 9.66665 21.6666H11V23C11 23.3536 11.1405 23.6927 11.3905 23.9428C11.6406 24.1928 11.9797 24.3333 12.3333 24.3333C12.6869 24.3333 13.0261 24.1928 13.2761 23.9428C13.5262 23.6927 13.6667 23.3536 13.6667 23V21.6666H15V23C15 23.3536 15.1405 23.6927 15.3905 23.9428C15.6406 24.1928 15.9797 24.3333 16.3333 24.3333C16.6869 24.3333 17.0261 24.1928 17.2761 23.9428C17.5262 23.6927 17.6667 23.3536 17.6667 23V21.6666C18.7275 21.6666 19.7449 21.2452 20.4951 20.4951C21.2452 19.7449 21.6667 18.7275 21.6667 17.6666C21.6644 16.6817 21.2989 15.7321 20.64 15C21.2989 14.2678 21.6644 13.3183 21.6667 12.3333C21.6667 11.2724 21.2452 10.255 20.4951 9.50489C19.7449 8.75474 18.7275 8.33331 17.6667 8.33331ZM17.6667 19H13.6667V16.3333H17.6667C18.0203 16.3333 18.3594 16.4738 18.6095 16.7238C18.8595 16.9739 19 17.313 19 17.6666C19 18.0203 18.8595 18.3594 18.6095 18.6095C18.3594 18.8595 18.0203 19 17.6667 19ZM17.6667 13.6666H13.6667V11H17.6667C18.0203 11 18.3594 11.1405 18.6095 11.3905C18.8595 11.6406 19 11.9797 19 12.3333C19 12.6869 18.8595 13.0261 18.6095 13.2761C18.3594 13.5262 18.0203 13.6666 17.6667 13.6666Z" fill="#0263FF"/>
</svg>
