<svg width="27" height="28" viewBox="0 0 27 28" fill="none" xmlns="http://www.w3.org/2000/svg">
<path d="M25.5001 0.666687H1.50008C1.14646 0.666687 0.807321 0.807163 0.557272 1.05721C0.307224 1.30726 0.166748 1.6464 0.166748 2.00002V26C0.166748 26.3536 0.307224 26.6928 0.557272 26.9428C0.807321 27.1929 1.14646 27.3334 1.50008 27.3334H25.5001C25.8537 27.3334 26.1928 27.1929 26.4429 26.9428C26.6929 26.6928 26.8334 26.3536 26.8334 26V2.00002C26.8334 1.6464 26.6929 1.30726 26.4429 1.05721C26.1928 0.807163 25.8537 0.666687 25.5001 0.666687ZM16.1667 24.6667H2.83341V15.3334H16.1667V24.6667ZM16.1667 12.6667H2.83341V3.33335H16.1667V12.6667ZM24.1667 24.6667H18.8334V3.33335H24.1667V24.6667Z" fill="#1D60CC"/>
</svg>
