<svg width="48" height="66" viewBox="0 0 48 66" fill="none" xmlns="http://www.w3.org/2000/svg">
<path d="M0 8C0 3.58172 3.58172 0 8 0H40C44.4183 0 48 3.58172 48 8V40C48 44.4183 44.4183 48 40 48H8C3.58172 48 0 44.4183 0 40V8Z" fill="url(#paint0_linear_119_3587)"/>
<path d="M33.3333 30.6666L34.4 23.9999H28V19.3333C28 17.4666 28.6667 15.9999 31.6 15.9999H34.6667V9.86659C32.9333 9.59992 31.0667 9.33325 29.3333 9.33325C23.8667 9.33325 20 12.6666 20 18.6666V23.9999H14V30.6666H20V47.9999C22.6667 47.9999 25.3333 47.9999 28 47.9999V30.6666H33.3333Z" fill="white"/>
<path opacity="0.6" d="M8.00391 64V61.6992H10.3672V60.8789H8.00391V59.2148H10.5898V58.3633H6.99609V64H8.00391ZM12.2344 64.0664C12.7656 64.0664 13.2852 63.7891 13.5234 63.3398H13.543V64H14.4805V61.1484C14.4805 60.3164 13.8125 59.7734 12.7852 59.7734C11.7305 59.7734 11.0703 60.3281 11.0273 61.1016H11.9297C11.9922 60.7578 12.2852 60.5352 12.7461 60.5352C13.2266 60.5352 13.5195 60.7852 13.5195 61.2188V61.5156L12.4258 61.5781C11.418 61.6406 10.8516 62.082 10.8516 62.8164C10.8516 63.5625 11.4336 64.0664 12.2344 64.0664ZM12.5273 63.332C12.1055 63.332 11.8242 63.1172 11.8242 62.7773C11.8242 62.4492 12.0938 62.2383 12.5625 62.207L13.5195 62.1484V62.4648C13.5195 62.9648 13.0781 63.332 12.5273 63.332ZM18.9141 61.3359C18.8477 60.4648 18.1719 59.7734 17.0781 59.7734C15.875 59.7734 15.0938 60.6055 15.0938 61.9297C15.0938 63.2734 15.875 64.082 17.0859 64.082C18.125 64.082 18.8398 63.4727 18.918 62.5469H18C17.9102 63.0156 17.5898 63.2969 17.0977 63.2969C16.4805 63.2969 16.082 62.7969 16.082 61.9297C16.082 61.0781 16.4766 60.5625 17.0898 60.5625C17.6094 60.5625 17.918 60.8945 17.9961 61.3359H18.9141ZM22.2422 62.7617C22.1367 63.1055 21.793 63.332 21.3398 63.332C20.7031 63.332 20.2969 62.8867 20.2969 62.2227V62.1641H23.1914V61.8477C23.1914 60.5898 22.457 59.7734 21.2812 59.7734C20.0859 59.7734 19.3281 60.6367 19.3281 61.9453C19.3281 63.2656 20.0781 64.082 21.3203 64.082C22.3008 64.082 23.0273 63.543 23.1523 62.7617H22.2422ZM21.2852 60.5273C21.8438 60.5273 22.2188 60.9375 22.2383 61.5234H20.3047C20.3438 60.9453 20.7383 60.5273 21.2852 60.5273ZM26.1367 64.0664C27.1836 64.0664 27.8438 63.2539 27.8438 61.9297C27.8438 60.6055 27.1797 59.7891 26.1367 59.7891C25.5508 59.7891 25.0781 60.0859 24.8438 60.5703H24.8203V58.3633H23.8477V64H24.8008V63.293H24.8203C25.0625 63.7734 25.5273 64.0664 26.1367 64.0664ZM25.8359 60.5898C26.457 60.5898 26.8477 61.1094 26.8477 61.9297C26.8477 62.7539 26.4609 63.2695 25.8359 63.2695C25.2344 63.2695 24.8164 62.7422 24.8164 61.9297C24.8164 61.125 25.2344 60.5898 25.8359 60.5898ZM30.3086 64.082C31.5234 64.082 32.3125 63.2734 32.3125 61.9297C32.3125 60.5898 31.5156 59.7734 30.3086 59.7734C29.1016 59.7734 28.3047 60.5938 28.3047 61.9297C28.3047 63.2734 29.0938 64.082 30.3086 64.082ZM30.3086 63.3125C29.6914 63.3125 29.293 62.8125 29.293 61.9297C29.293 61.0508 29.6953 60.5469 30.3086 60.5469C30.9258 60.5469 31.3242 61.0508 31.3242 61.9297C31.3242 62.8125 30.9258 63.3125 30.3086 63.3125ZM34.7695 64.082C35.9844 64.082 36.7734 63.2734 36.7734 61.9297C36.7734 60.5898 35.9766 59.7734 34.7695 59.7734C33.5625 59.7734 32.7656 60.5938 32.7656 61.9297C32.7656 63.2734 33.5547 64.082 34.7695 64.082ZM34.7695 63.3125C34.1523 63.3125 33.7539 62.8125 33.7539 61.9297C33.7539 61.0508 34.1562 60.5469 34.7695 60.5469C35.3867 60.5469 35.7852 61.0508 35.7852 61.9297C35.7852 62.8125 35.3867 63.3125 34.7695 63.3125ZM38.4102 61.5859H38.3984V58.3633H37.4258V64H38.3984V62.5625L38.7266 62.2305L40.0352 64H41.1602L39.4336 61.6406L41.0898 59.8594H39.9688L38.4102 61.5859Z" fill="black"/>
<defs>
<linearGradient id="paint0_linear_119_3587" x1="24" y1="46.5975" x2="24" y2="0" gradientUnits="userSpaceOnUse">
<stop stop-color="#0062E0"/>
<stop offset="1" stop-color="#19AFFF"/>
</linearGradient>
</defs>
</svg>
