<svg width="16" height="21" viewBox="0 0 16 21" fill="none" xmlns="http://www.w3.org/2000/svg">
<path d="M14 11.68V8.5C13.9986 7.08312 13.4958 5.71247 12.5806 4.63077C11.6655 3.54908 10.3971 2.82615 9 2.59V1.5C9 1.23478 8.89464 0.98043 8.70711 0.792893C8.51957 0.605357 8.26522 0.5 8 0.5C7.73478 0.5 7.48043 0.605357 7.29289 0.792893C7.10536 0.98043 7 1.23478 7 1.5V2.59C5.60294 2.82615 4.33452 3.54908 3.41939 4.63077C2.50425 5.71247 2.00144 7.08312 2 8.5V11.68C1.41645 11.8863 0.910998 12.2681 0.552938 12.7729C0.194879 13.2778 0.00173951 13.8811 0 14.5V16.5C0 16.7652 0.105357 17.0196 0.292893 17.2071C0.48043 17.3946 0.734784 17.5 1 17.5H4.14C4.37028 18.3474 4.873 19.0954 5.5706 19.6287C6.26819 20.1621 7.1219 20.451 8 20.451C8.8781 20.451 9.73181 20.1621 10.4294 19.6287C11.127 19.0954 11.6297 18.3474 11.86 17.5H15C15.2652 17.5 15.5196 17.3946 15.7071 17.2071C15.8946 17.0196 16 16.7652 16 16.5V14.5C15.9983 13.8811 15.8051 13.2778 15.4471 12.7729C15.089 12.2681 14.5835 11.8863 14 11.68ZM4 8.5C4 7.43913 4.42143 6.42172 5.17157 5.67157C5.92172 4.92143 6.93913 4.5 8 4.5C9.06087 4.5 10.0783 4.92143 10.8284 5.67157C11.5786 6.42172 12 7.43913 12 8.5V11.5H4V8.5ZM8 18.5C7.65097 18.4979 7.30857 18.4045 7.00683 18.2291C6.70509 18.0536 6.45451 17.8023 6.28 17.5H9.72C9.54549 17.8023 9.29491 18.0536 8.99317 18.2291C8.69143 18.4045 8.34903 18.4979 8 18.5ZM14 15.5H2V14.5C2 14.2348 2.10536 13.9804 2.29289 13.7929C2.48043 13.6054 2.73478 13.5 3 13.5H13C13.2652 13.5 13.5196 13.6054 13.7071 13.7929C13.8946 13.9804 14 14.2348 14 14.5V15.5Z" fill="black"/>
</svg>
