<svg width="48" height="66" viewBox="0 0 48 66" fill="none" xmlns="http://www.w3.org/2000/svg">
<path d="M0 8C0 3.58172 3.58172 0 8 0H40C44.4183 0 48 3.58172 48 8V40C48 44.4183 44.4183 48 40 48H8C3.58172 48 0 44.4183 0 40V8Z" fill="url(#paint0_radial_119_3579)"/>
<path d="M0 8C0 3.58172 3.58172 0 8 0H40C44.4183 0 48 3.58172 48 8V40C48 44.4183 44.4183 48 40 48H8C3.58172 48 0 44.4183 0 40V8Z" fill="url(#paint1_radial_119_3579)"/>
<path d="M24.0008 6.54541C19.2605 6.54541 18.6656 6.56614 16.8039 6.65087C14.9458 6.73596 13.6774 7.03014 12.5677 7.46177C11.4197 7.90759 10.4459 8.50396 9.47574 9.4745C8.50487 10.4447 7.90852 11.4185 7.46126 12.5661C7.02855 13.6763 6.73401 14.945 6.65038 16.8025C6.56711 18.6643 6.54529 19.2596 6.54529 24C6.54529 28.7403 6.56638 29.3334 6.65074 31.1952C6.73619 33.0534 7.03036 34.3218 7.46162 35.4316C7.90779 36.5796 8.50414 37.5534 9.47465 38.5236C10.4444 39.4945 11.4182 40.0923 12.5655 40.5381C13.676 40.9698 14.9447 41.264 16.8024 41.349C18.6642 41.4338 19.2587 41.4545 23.9986 41.4545C28.7392 41.4545 29.3322 41.4338 31.194 41.349C33.0521 41.264 34.3219 40.9698 35.4324 40.5381C36.58 40.0923 37.5523 39.4945 38.5221 38.5236C39.493 37.5534 40.0894 36.5796 40.5366 35.432C40.9657 34.3218 41.2602 33.053 41.3475 31.1956C41.4311 29.3338 41.453 28.7403 41.453 24C41.453 19.2596 41.4311 18.6647 41.3475 16.8029C41.2602 14.9447 40.9657 13.6763 40.5366 12.5665C40.0894 11.4185 39.493 10.4447 38.5221 9.4745C37.5513 8.50359 36.5804 7.90723 35.4313 7.46177C34.3186 7.03014 33.0496 6.73596 31.1915 6.65087C29.3297 6.56614 28.737 6.54541 23.9953 6.54541H24.0008ZM22.435 9.69086C22.8997 9.69014 23.4182 9.69086 24.0008 9.69086C28.661 9.69086 29.2133 9.70759 31.0536 9.79123C32.7554 9.86905 33.679 10.1534 34.2943 10.3923C35.1088 10.7087 35.6895 11.0869 36.3 11.6978C36.9109 12.3087 37.2891 12.8905 37.6062 13.705C37.8451 14.3196 38.1298 15.2432 38.2072 16.945C38.2909 18.785 38.3091 19.3378 38.3091 23.996C38.3091 28.6541 38.2909 29.2069 38.2072 31.0469C38.1294 32.7487 37.8451 33.6723 37.6062 34.2869C37.2898 35.1014 36.9109 35.6814 36.3 36.292C35.6891 36.9029 35.1091 37.281 34.2943 37.5974C33.6797 37.8374 32.7554 38.121 31.0536 38.1989C29.2137 38.2825 28.661 38.3007 24.0008 38.3007C19.3402 38.3007 18.7878 38.2825 16.9479 38.1989C15.2461 38.1203 14.3225 37.836 13.7069 37.597C12.8924 37.2807 12.3106 36.9025 11.6997 36.2916C11.0888 35.6807 10.7106 35.1003 10.3935 34.2854C10.1546 33.6709 9.86991 32.7472 9.79246 31.0454C9.70883 29.2054 9.6921 28.6527 9.6921 23.9916C9.6921 19.3305 9.70883 18.7807 9.79246 16.9407C9.87028 15.2389 10.1546 14.3152 10.3935 13.7C10.7099 12.8854 11.0888 12.3036 11.6997 11.6927C12.3106 11.0818 12.8924 10.7036 13.7069 10.3865C14.3221 10.1465 15.2461 9.86286 16.9479 9.78468C18.558 9.71196 19.182 9.69014 22.435 9.6865V9.69086ZM33.3176 12.589C32.1612 12.589 31.2231 13.5261 31.2231 14.6829C31.2231 15.8392 32.1612 16.7774 33.3176 16.7774C34.4739 16.7774 35.4121 15.8392 35.4121 14.6829C35.4121 13.5265 34.4739 12.5883 33.3176 12.5883V12.589ZM24.0008 15.0363C19.0507 15.0363 15.0374 19.0498 15.0374 24C15.0374 28.9501 19.0507 32.9618 24.0008 32.9618C28.9508 32.9618 32.9627 28.9501 32.9627 24C32.9627 19.0498 28.9504 15.0363 24.0004 15.0363H24.0008ZM24.0008 18.1818C27.2138 18.1818 29.8188 20.7865 29.8188 24C29.8188 27.213 27.2138 29.8181 24.0008 29.8181C20.7874 29.8181 18.1828 27.213 18.1828 24C18.1828 20.7865 20.7874 18.1818 24.0008 18.1818Z" fill="white"/>
<path opacity="0.6" d="M7.50391 64V58.3633H6.49609V64H7.50391ZM8.39844 64H9.37109V61.6016C9.37109 61.0078 9.72656 60.6055 10.2852 60.6055C10.8398 60.6055 11.1133 60.9336 11.1133 61.5195V64H12.0859V61.3242C12.0859 60.3672 11.5664 59.7812 10.6523 59.7812C10.0156 59.7812 9.57422 60.0781 9.35156 60.5703H9.33203V59.8594H8.39844V64ZM12.793 61.0469C12.793 61.6602 13.1914 62.0508 13.9844 62.2266L14.6719 62.3789C15.1055 62.4766 15.2539 62.6172 15.2539 62.8672C15.2539 63.1758 14.9609 63.3711 14.4883 63.3711C13.9961 63.3711 13.7188 63.168 13.6445 62.7656H12.6875C12.7656 63.5664 13.4062 64.082 14.4883 64.082C15.5039 64.082 16.2227 63.5547 16.2227 62.7734C16.2227 62.1719 15.8906 61.8398 15.0312 61.6484L14.3438 61.4961C13.9102 61.3984 13.7383 61.2344 13.7383 60.9961C13.7383 60.6914 14.0234 60.4883 14.4531 60.4883C14.9023 60.4883 15.1797 60.7266 15.2188 61.1016H16.125C16.1016 60.3164 15.4609 59.7734 14.4531 59.7734C13.4531 59.7734 12.793 60.2891 12.793 61.0469ZM17.1133 58.8906V59.8594H16.5195V60.6094H17.1133V62.8984C17.1133 63.7031 17.4648 64.0195 18.3594 64.0195C18.5664 64.0195 18.7578 64.0039 18.8633 63.9805V63.2383C18.8008 63.25 18.6758 63.2578 18.5859 63.2578C18.2422 63.2578 18.0859 63.1016 18.0859 62.7617V60.6094H18.8672V59.8594H18.0859V58.8906H17.1133ZM20.6953 64.0664C21.2266 64.0664 21.7461 63.7891 21.9844 63.3398H22.0039V64H22.9414V61.1484C22.9414 60.3164 22.2734 59.7734 21.2461 59.7734C20.1914 59.7734 19.5312 60.3281 19.4883 61.1016H20.3906C20.4531 60.7578 20.7461 60.5352 21.207 60.5352C21.6875 60.5352 21.9805 60.7852 21.9805 61.2188V61.5156L20.8867 61.5781C19.8789 61.6406 19.3125 62.082 19.3125 62.8164C19.3125 63.5625 19.8945 64.0664 20.6953 64.0664ZM20.9883 63.332C20.5664 63.332 20.2852 63.1172 20.2852 62.7773C20.2852 62.4492 20.5547 62.2383 21.0234 62.207L21.9805 62.1484V62.4648C21.9805 62.9648 21.5391 63.332 20.9883 63.332ZM25.5508 65.5625C26.7578 65.5625 27.5508 64.9219 27.5508 63.9336V59.8594H26.5977V60.5703H26.582C26.3438 60.0938 25.8672 59.7891 25.2773 59.7891C24.2188 59.7891 23.5547 60.6055 23.5547 61.9141C23.5547 63.2031 24.2344 64.0039 25.2578 64.0039C25.8516 64.0039 26.3398 63.707 26.5547 63.2617H26.5781V63.9609C26.5781 64.4883 26.2148 64.8438 25.582 64.8438C25.1211 64.8438 24.7656 64.6289 24.6602 64.3125H23.6953C23.793 65.0391 24.5273 65.5625 25.5508 65.5625ZM25.5547 63.2305C24.9414 63.2305 24.5508 62.7383 24.5508 61.918C24.5508 61.1055 24.9414 60.5898 25.5547 60.5898C26.1758 60.5898 26.5781 61.1133 26.5781 61.918C26.5781 62.7266 26.1758 63.2305 25.5547 63.2305ZM28.3438 64H29.3164V61.5898C29.3164 61.0078 29.6484 60.6523 30.1992 60.6523C30.3633 60.6523 30.5117 60.6758 30.5938 60.707V59.8281C30.5234 59.8125 30.4141 59.7891 30.2891 59.7891C29.8008 59.7891 29.4375 60.0781 29.2969 60.582H29.2773V59.8594H28.3438V64ZM32.2188 64.0664C32.75 64.0664 33.2695 63.7891 33.5078 63.3398H33.5273V64H34.4648V61.1484C34.4648 60.3164 33.7969 59.7734 32.7695 59.7734C31.7148 59.7734 31.0547 60.3281 31.0117 61.1016H31.9141C31.9766 60.7578 32.2695 60.5352 32.7305 60.5352C33.2109 60.5352 33.5039 60.7852 33.5039 61.2188V61.5156L32.4102 61.5781C31.4023 61.6406 30.8359 62.082 30.8359 62.8164C30.8359 63.5625 31.418 64.0664 32.2188 64.0664ZM32.5117 63.332C32.0898 63.332 31.8086 63.1172 31.8086 62.7773C31.8086 62.4492 32.0781 62.2383 32.5469 62.207L33.5039 62.1484V62.4648C33.5039 62.9648 33.0625 63.332 32.5117 63.332ZM35.25 64H36.2227V61.4648C36.2227 60.9648 36.5508 60.6016 37.0195 60.6016C37.4727 60.6016 37.7539 60.8867 37.7539 61.3477V64H38.6992V61.4414C38.6992 60.9453 39.0195 60.6016 39.4883 60.6016C39.9648 60.6016 40.2305 60.8906 40.2305 61.3984V64H41.2031V61.1602C41.2031 60.332 40.668 59.7812 39.8516 59.7812C39.2539 59.7812 38.7617 60.1016 38.5625 60.6133H38.5391C38.3867 60.082 37.9688 59.7812 37.3828 59.7812C36.8203 59.7812 36.3828 60.0977 36.2031 60.5781H36.1836V59.8594H35.25V64Z" fill="black"/>
<defs>
<radialGradient id="paint0_radial_119_3579" cx="0" cy="0" r="1" gradientUnits="userSpaceOnUse" gradientTransform="translate(12.7501 51.697) rotate(-90) scale(47.5715 44.2453)">
<stop stop-color="#FFDD55"/>
<stop offset="0.1" stop-color="#FFDD55"/>
<stop offset="0.5" stop-color="#FF543E"/>
<stop offset="1" stop-color="#C837AB"/>
</radialGradient>
<radialGradient id="paint1_radial_119_3579" cx="0" cy="0" r="1" gradientUnits="userSpaceOnUse" gradientTransform="translate(-8.04025 3.45784) rotate(78.6806) scale(21.2647 87.6539)">
<stop stop-color="#3771C8"/>
<stop offset="0.128" stop-color="#3771C8"/>
<stop offset="1" stop-color="#6600FF" stop-opacity="0"/>
</radialGradient>
</defs>
</svg>
