<svg width="60" height="5" viewBox="0 0 96 19" fill="none" xmlns="http://www.w3.org/2000/svg">
<path d="M9.2832 12.5586H3.12109V0.908203H0.171875V15H9.2832V12.5586ZM32.6355 15.2246C35.7996 15.2246 37.8211 13.2031 37.8211 9.75586C37.8211 6.35742 35.7703 4.30664 32.6355 4.30664C29.5008 4.30664 27.45 6.36719 27.45 9.75586C27.45 13.1934 29.4715 15.2246 32.6355 15.2246ZM32.6355 13.0469C31.2293 13.0469 30.3406 11.8652 30.3406 9.76562C30.3406 7.68555 31.2488 6.48438 32.6355 6.48438C34.0223 6.48438 34.9207 7.68555 34.9207 9.76562C34.9207 11.8652 34.032 13.0469 32.6355 13.0469ZM61.3297 12.7734C59.9137 12.7734 59.0348 11.6602 59.0348 9.74609C59.0348 7.8418 59.9234 6.65039 61.3297 6.65039C62.7555 6.65039 63.6637 7.86133 63.6637 9.74609C63.6637 11.6406 62.7555 12.7734 61.3297 12.7734ZM61.2809 18.9453C64.4156 18.9453 66.5055 17.3535 66.5055 14.8535V4.53125H63.693V6.35742H63.6441C63.0973 5.15625 61.9156 4.36523 60.4117 4.36523C57.7555 4.36523 56.1148 6.40625 56.1148 9.72656C56.1148 12.998 57.8043 14.9707 60.3629 14.9707C61.8766 14.9707 63.107 14.209 63.5953 13.0957H63.6539V14.9316C63.6539 16.1426 62.8336 16.9629 61.359 16.9629C60.275 16.9629 59.4547 16.4648 59.2301 15.7422H56.4371C56.6617 17.6074 58.527 18.9453 61.2809 18.9453ZM90.3754 15.2246C93.5395 15.2246 95.5609 13.2031 95.5609 9.75586C95.5609 6.35742 93.5102 4.30664 90.3754 4.30664C87.2406 4.30664 85.1898 6.36719 85.1898 9.75586C85.1898 13.1934 87.2113 15.2246 90.3754 15.2246ZM90.3754 13.0469C88.9691 13.0469 88.0805 11.8652 88.0805 9.76562C88.0805 7.68555 88.9887 6.48438 90.3754 6.48438C91.7621 6.48438 92.6606 7.68555 92.6606 9.76562C92.6606 11.8652 91.7719 13.0469 90.3754 13.0469Z" fill="url(#paint0_linear_103_192)"/>
<defs>
<linearGradient id="paint0_linear_103_192" x1="-1" y1="8" x2="101" y2="15" gradientUnits="userSpaceOnUse">
<stop stop-color="#0263FF"/>
<stop offset="1" stop-color="#37EAFF"/>
</linearGradient>
</defs>
</svg>
