<svg width="180" height="67" viewBox="0 0 180 67" fill="none" xmlns="http://www.w3.org/2000/svg">
<g opacity="0.8">
<rect width="180" height="66.9767" fill="url(#paint0_linear_119_2795)"/>
<path fill-rule="evenodd" clip-rule="evenodd" d="M25.1163 16.7442H33.4884V25.1163V33.4884V41.8605H41.8605V50.2326H33.4884H25.1163H16.7442V41.8605H25.1163V33.4884H16.7442V25.1163L25.1163 25.1163V16.7442ZM50.2326 41.8605H58.6047V50.2326H50.2326V41.8605ZM92.093 50.2326V41.8605H96.2791V33.4884H92.093V25.1163V16.7442H87.907H83.7209H79.5349V25.1163H71.1628V33.4884H66.9767V41.8605H75.3488H83.7209V50.2326H92.093ZM79.5349 25.1163H83.7209V33.4884H79.5349V25.1163ZM113.023 16.7442H104.651V25.1163H113.023H121.395V29.3023H113.023V37.6744H121.395V41.8605H113.023H104.651V50.2326H113.023H121.395V41.8605H129.767V33.4884V25.1163L121.395 25.1163V16.7442H113.023ZM138.14 20.9302H146.512V16.7442H154.884H163.256V25.1163H154.884H146.512V29.3023L154.884 29.3023V33.4884H163.256V41.8605V50.2326H154.884H146.512H138.14V41.8605H146.512H154.884V37.6744H146.512H138.14V29.3023V20.9302Z" fill="white"/>
</g>
<defs>
<linearGradient id="paint0_linear_119_2795" x1="30.0946" y1="66.9767" x2="180.806" y2="58.4667" gradientUnits="userSpaceOnUse">
<stop stop-color="#0263FF"/>
<stop offset="1" stop-color="#37EAFF"/>
</linearGradient>
</defs>
</svg>
