<svg width="48" height="66" viewBox="0 0 48 66" fill="none" xmlns="http://www.w3.org/2000/svg">
<path d="M0 8C0 3.58172 3.58172 0 8 0H40C44.4183 0 48 3.58172 48 8V40C48 44.4183 44.4183 48 40 48H8C3.58172 48 0 44.4183 0 40V8Z" fill="#1EA1F2"/>
<path fill-rule="evenodd" clip-rule="evenodd" d="M37.323 18.1521C37.3346 18.452 37.3385 18.7516 37.3385 19.0514C37.3385 28.1409 30.9444 38.6342 19.252 38.6342C15.6603 38.6342 12.3205 37.4895 9.50659 35.5407C10.004 35.5953 10.5092 35.6362 11.0221 35.6362C14.0001 35.6362 16.743 34.5322 18.9187 32.6789C16.137 32.638 13.7882 30.6347 12.9782 27.9093C13.367 27.991 13.7675 28.032 14.1771 28.032C14.7546 28.032 15.3153 27.9504 15.8528 27.7868C12.942 27.16 10.7495 24.38 10.7495 21.0413C10.7495 21.0004 10.7495 20.9867 10.7495 20.9595C11.6074 21.4637 12.5893 21.777 13.6319 21.8178C11.9239 20.5777 10.8011 18.4656 10.8011 16.0808C10.8011 14.827 11.1138 13.6414 11.6642 12.6193C14.7985 16.7893 19.4846 19.5285 24.7675 19.8147C24.659 19.3104 24.6034 18.7791 24.6034 18.2476C24.6034 14.4456 27.4496 11.3657 30.9612 11.3657C32.7894 11.3657 34.4405 12.1971 35.5994 13.5326C37.0503 13.2328 38.4095 12.6605 39.6395 11.8701C39.1627 13.4781 38.1563 14.827 36.841 15.6719C38.1278 15.5083 39.3553 15.1407 40.4935 14.5956C39.6395 15.9719 38.5646 17.1846 37.323 18.1521Z" fill="white"/>
<path opacity="0.6" d="M14.3789 64V59.2148H16.0625V58.3633H11.6875V59.2148H13.375V64H14.3789ZM21.7422 59.8594H20.7812L20.082 63.0391H20.0586L19.25 59.8594H18.3164L17.5078 63.0391H17.4883L16.7891 59.8594H15.8125L16.9336 64H17.9492L18.7617 60.9727H18.7812L19.5977 64H20.6211L21.7422 59.8594ZM22.7344 59.2344C23.0312 59.2344 23.2656 58.9961 23.2656 58.707C23.2656 58.4141 23.0312 58.1797 22.7344 58.1797C22.4375 58.1797 22.1992 58.4141 22.1992 58.707C22.1992 58.9961 22.4375 59.2344 22.7344 59.2344ZM22.25 64H23.2227V59.8594H22.25V64ZM24.3086 58.8906V59.8594H23.7148V60.6094H24.3086V62.8984C24.3086 63.7031 24.6602 64.0195 25.5547 64.0195C25.7617 64.0195 25.9531 64.0039 26.0586 63.9805V63.2383C25.9961 63.25 25.8711 63.2578 25.7812 63.2578C25.4375 63.2578 25.2812 63.1016 25.2812 62.7617V60.6094H26.0625V59.8594H25.2812V58.8906H24.3086ZM26.9961 58.8906V59.8594H26.4023V60.6094H26.9961V62.8984C26.9961 63.7031 27.3477 64.0195 28.2422 64.0195C28.4492 64.0195 28.6406 64.0039 28.7461 63.9805V63.2383C28.6836 63.25 28.5586 63.2578 28.4688 63.2578C28.125 63.2578 27.9688 63.1016 27.9688 62.7617V60.6094H28.75V59.8594H27.9688V58.8906H26.9961ZM32.0781 62.7617C31.9727 63.1055 31.6289 63.332 31.1758 63.332C30.5391 63.332 30.1328 62.8867 30.1328 62.2227V62.1641H33.0273V61.8477C33.0273 60.5898 32.293 59.7734 31.1172 59.7734C29.9219 59.7734 29.1641 60.6367 29.1641 61.9453C29.1641 63.2656 29.9141 64.082 31.1562 64.082C32.1367 64.082 32.8633 63.543 32.9883 62.7617H32.0781ZM31.1211 60.5273C31.6797 60.5273 32.0547 60.9375 32.0742 61.5234H30.1406C30.1797 60.9453 30.5742 60.5273 31.1211 60.5273ZM33.6562 64H34.6289V61.5898C34.6289 61.0078 34.9609 60.6523 35.5117 60.6523C35.6758 60.6523 35.8242 60.6758 35.9062 60.707V59.8281C35.8359 59.8125 35.7266 59.7891 35.6016 59.7891C35.1133 59.7891 34.75 60.0781 34.6094 60.582H34.5898V59.8594H33.6562V64Z" fill="black"/>
</svg>
