<svg width="28" height="28" viewBox="0 0 28 28" fill="none" xmlns="http://www.w3.org/2000/svg">
<path d="M14 0.666687C11.4139 0.6716 8.88514 1.42844 6.7216 2.84501C4.55806 4.26158 2.85316 6.27674 1.81455 8.64505C0.775946 11.0134 0.448465 13.6326 0.871999 16.1837C1.29553 18.7348 2.4518 21.1077 4.19996 23.0134C5.44853 24.3668 6.96389 25.4469 8.65055 26.1856C10.3372 26.9244 12.1586 27.3058 14 27.3058C15.8413 27.3058 17.6627 26.9244 19.3494 26.1856C21.036 25.4469 22.5514 24.3668 23.8 23.0134C25.5481 21.1077 26.7044 18.7348 27.1279 16.1837C27.5515 13.6326 27.224 11.0134 26.1854 8.64505C25.1468 6.27674 23.4419 4.26158 21.2783 2.84501C19.1148 1.42844 16.586 0.6716 14 0.666687ZM14 24.6667C11.2379 24.6625 8.58518 23.5871 6.59996 21.6667C7.20269 20.1994 8.22801 18.9444 9.54564 18.0612C10.8633 17.178 12.4137 16.7064 14 16.7064C15.5862 16.7064 17.1367 17.178 18.4543 18.0612C19.7719 18.9444 20.7972 20.1994 21.4 21.6667C19.4147 23.5871 16.762 24.6625 14 24.6667ZM11.3333 11.3334C11.3333 10.8059 11.4897 10.2904 11.7827 9.85183C12.0757 9.4133 12.4922 9.07151 12.9795 8.86967C13.4667 8.66784 14.0029 8.61503 14.5202 8.71793C15.0375 8.82082 15.5126 9.0748 15.8856 9.44774C16.2585 9.82068 16.5125 10.2958 16.6154 10.8131C16.7183 11.3304 16.6655 11.8666 16.4636 12.3538C16.2618 12.8411 15.92 13.2576 15.4815 13.5506C15.043 13.8436 14.5274 14 14 14C13.2927 14 12.6144 13.7191 12.1143 13.219C11.6142 12.7189 11.3333 12.0406 11.3333 11.3334ZM23.2133 19.3334C22.022 17.2957 20.1885 15.7107 18 14.8267C18.6789 14.0569 19.1212 13.1076 19.2739 12.0926C19.4266 11.0776 19.2833 10.0402 18.861 9.10468C18.4387 8.1692 17.7554 7.37543 16.8932 6.81864C16.0309 6.26185 15.0264 5.96569 14 5.96569C12.9736 5.96569 11.969 6.26185 11.1068 6.81864C10.2445 7.37543 9.56126 8.1692 9.13896 9.10468C8.71667 10.0402 8.57328 11.0776 8.726 12.0926C8.87873 13.1076 9.32107 14.0569 9.99996 14.8267C7.81143 15.7107 5.97792 17.2957 4.78663 19.3334C3.83722 17.7162 3.33559 15.8753 3.3333 14C3.3333 11.171 4.4571 8.45794 6.45749 6.45755C8.45788 4.45716 11.171 3.33335 14 3.33335C16.8289 3.33335 19.542 4.45716 21.5424 6.45755C23.5428 8.45794 24.6666 11.171 24.6666 14C24.6643 15.8753 24.1627 17.7162 23.2133 19.3334Z" fill="#0263FF"/>
</svg>
