<svg width="25" height="28" viewBox="0 0 25 28" fill="none" xmlns="http://www.w3.org/2000/svg">
<path d="M24.5001 12.9867C24.4935 12.9514 24.4935 12.9153 24.5001 12.88V12.6267C24.5001 12.32 24.4201 12.0134 24.3667 11.7067C24.3591 11.6358 24.3591 11.5643 24.3667 11.4934C24.3001 11.16 24.2067 10.84 24.1134 10.52C23.5433 8.67966 22.5342 7.00557 21.173 5.64207C19.8118 4.27857 18.1394 3.26659 16.3001 2.69335H16.1934C15.9001 2.60002 15.5934 2.52002 15.2867 2.45335H15.0467C14.8044 2.40478 14.5596 2.36917 14.3134 2.34669H13.9934V2.00002C13.9934 1.6464 13.8529 1.30726 13.6029 1.05721C13.3528 0.807163 13.0137 0.666687 12.6601 0.666687C12.3064 0.666687 11.9673 0.807163 11.7173 1.05721C11.4672 1.30726 11.3267 1.6464 11.3267 2.00002V2.08002C10.878 2.13398 10.4328 2.21411 9.9934 2.32002C9.71332 2.3723 9.43713 2.44357 9.16673 2.53335H8.9934C8.66006 2.64002 8.3534 2.76002 8.0334 2.88002C6.38699 3.5319 4.90672 4.5428 3.70039 5.83908C2.49406 7.13537 1.59206 8.6844 1.06006 10.3734C1.05546 10.4088 1.05546 10.4446 1.06006 10.48C0.956999 10.7948 0.872411 11.1154 0.806729 11.44V11.6534C0.735618 11.9734 0.682284 12.3067 0.646729 12.6534C0.646729 12.6534 0.646729 12.7467 0.646729 12.8C0.646729 12.8534 0.646729 12.88 0.646729 12.92C0.646729 12.96 0.646729 12.92 0.646729 12.9867C0.646729 13.32 0.646729 13.6534 0.646729 14C0.646729 14.3536 0.787205 14.6928 1.03725 14.9428C1.2873 15.1929 1.62644 15.3334 1.98006 15.3334H11.3134V23.3334C11.3134 23.687 11.1729 24.0261 10.9229 24.2762C10.6728 24.5262 10.3337 24.6667 9.98006 24.6667C9.62644 24.6667 9.2873 24.5262 9.03725 24.2762C8.7872 24.0261 8.64673 23.687 8.64673 23.3334C8.64673 22.9797 8.50625 22.6406 8.25621 22.3905C8.00616 22.1405 7.66702 22 7.3134 22C6.95977 22 6.62064 22.1405 6.37059 22.3905C6.12054 22.6406 5.98006 22.9797 5.98006 23.3334C5.98006 24.3942 6.40149 25.4116 7.15164 26.1618C7.90178 26.9119 8.9192 27.3334 9.98006 27.3334C11.0409 27.3334 12.0583 26.9119 12.8085 26.1618C13.5586 25.4116 13.9801 24.3942 13.9801 23.3334V15.3334H23.3134C23.667 15.3334 24.0062 15.1929 24.2562 14.9428C24.5063 14.6928 24.6467 14.3536 24.6467 14C24.5001 13.6534 24.5001 13.32 24.5001 12.9867ZM7.16673 12.6667H3.2734C3.2734 12.6667 3.2734 12.5734 3.2734 12.52C3.2734 12.4667 3.2734 12.1467 3.38006 11.9734C3.48673 11.8 3.38006 11.8 3.38006 11.72C3.38006 11.64 3.48673 11.2934 3.5534 11.08V10.9734C3.98012 9.76417 4.65143 8.65588 5.52545 7.71763C6.39947 6.77937 7.45745 6.03128 8.6334 5.52002C7.74006 7.80103 7.244 10.2182 7.16673 12.6667ZM9.8334 12.6667C10.0867 7.45335 11.7534 4.66669 12.5001 4.66669C13.2467 4.66669 14.8867 7.45335 15.1667 12.6667H9.8334ZM17.8334 12.6667C17.7561 10.2182 17.2601 7.80103 16.3667 5.52002C17.5268 6.04761 18.5666 6.8072 19.4219 7.75197C20.2773 8.69674 20.9301 9.80667 21.3401 11.0134C21.4208 11.2447 21.4875 11.4807 21.5401 11.72C21.534 11.7866 21.534 11.8535 21.5401 11.92C21.5401 12.1067 21.6201 12.3067 21.6467 12.4934C21.6734 12.68 21.6467 12.5867 21.6467 12.64L17.8334 12.6667Z" fill="#1D60CC"/>
</svg>
